<svg xmlns="http://www.w3.org/2000/svg" viewBox="0 0 800 500" width="800" height="500">
  <!-- 背景 -->
  <rect width="800" height="500" fill="#f8f9fa" rx="10" ry="10"/>
  
  <!-- 标题 -->
  <text x="400" y="50" font-family="Arial" font-size="24" fill="#1a1a2e" text-anchor="middle" font-weight="bold">骨架动作识别技术原理</text>
  
  <!-- 左侧：输入视频帧 -->
  <rect x="50" y="100" width="200" height="150" rx="5" ry="5" fill="#e4e8f0" stroke="#3498db" stroke-width="2"/>
  <text x="150" y="90" font-family="Arial" font-size="16" fill="#3498db" text-anchor="middle">输入视频</text>
  
  <!-- 人物轮廓 -->
  <ellipse cx="150" cy="140" rx="25" ry="25" fill="#2c3e50" opacity="0.7"/><!-- 头部 -->
  <line x1="150" y1="165" x2="150" y2="210" stroke="#2c3e50" stroke-width="3" opacity="0.7"/><!-- 躯干 -->
  <line x1="150" y1="175" x2="120" y2="200" stroke="#2c3e50" stroke-width="3" opacity="0.7"/><!-- 左臂 -->
  <line x1="150" y1="175" x2="180" y2="200" stroke="#2c3e50" stroke-width="3" opacity="0.7"/><!-- 右臂 -->
  <line x1="150" y1="210" x2="130" y2="240" stroke="#2c3e50" stroke-width="3" opacity="0.7"/><!-- 左腿 -->
  <line x1="150" y1="210" x2="170" y2="240" stroke="#2c3e50" stroke-width="3" opacity="0.7"/><!-- 右腿 -->
  
  <!-- 中间：处理过程 -->
  <rect x="300" y="100" width="200" height="300" rx="5" ry="5" fill="#e4e8f0" stroke="#3498db" stroke-width="2"/>
  <text x="400" y="90" font-family="Arial" font-size="16" fill="#3498db" text-anchor="middle">AI处理</text>
  
  <!-- 处理步骤 -->
  <rect x="320" y="120" width="160" height="40" rx="5" ry="5" fill="#fff" stroke="#3498db" stroke-width="1"/>
  <text x="400" y="145" font-family="Arial" font-size="12" fill="#333" text-anchor="middle">1. 人体检测</text>
  
  <rect x="320" y="180" width="160" height="40" rx="5" ry="5" fill="#fff" stroke="#3498db" stroke-width="1"/>
  <text x="400" y="205" font-family="Arial" font-size="12" fill="#333" text-anchor="middle">2. 关键点识别</text>
  
  <rect x="320" y="240" width="160" height="40" rx="5" ry="5" fill="#fff" stroke="#3498db" stroke-width="1"/>
  <text x="400" y="265" font-family="Arial" font-size="12" fill="#333" text-anchor="middle">3. 骨架构建</text>
  
  <rect x="320" y="300" width="160" height="40" rx="5" ry="5" fill="#fff" stroke="#3498db" stroke-width="1"/>
  <text x="400" y="325" font-family="Arial" font-size="12" fill="#333" text-anchor="middle">4. 动作分析</text>
  
  <!-- 箭头 -->
  <polygon points="270,175 290,175 280,165" fill="#3498db"/>
  <line x1="250" y1="175" x2="270" y2="175" stroke="#3498db" stroke-width="2"/>
  
  <polygon points="520,175 540,175 530,165" fill="#3498db"/>
  <line x1="500" y1="175" x2="520" y2="175" stroke="#3498db" stroke-width="2"/>
  
  <!-- 右侧：输出结果 -->
  <rect x="550" y="100" width="200" height="300" rx="5" ry="5" fill="#e4e8f0" stroke="#3498db" stroke-width="2"/>
  <text x="650" y="90" font-family="Arial" font-size="16" fill="#3498db" text-anchor="middle">分析结果</text>
  
  <!-- 骨架模型 -->
  <circle cx="650" cy="140" r="15" fill="#fff" stroke="#3498db" stroke-width="2"/><!-- 头部 -->
  <line x1="650" y1="155" x2="650" y2="210" stroke="#3498db" stroke-width="2" stroke-linecap="round"/><!-- 躯干 -->
  <line x1="650" y1="170" x2="620" y2="190" stroke="#3498db" stroke-width="2" stroke-linecap="round"/><!-- 左臂 -->
  <line x1="620" y1="190" x2="610" y2="220" stroke="#3498db" stroke-width="2" stroke-linecap="round"/><!-- 左前臂 -->
  <line x1="650" y1="170" x2="680" y2="190" stroke="#3498db" stroke-width="2" stroke-linecap="round"/><!-- 右臂 -->
  <line x1="680" y1="190" x2="690" y2="220" stroke="#3498db" stroke-width="2" stroke-linecap="round"/><!-- 右前臂 -->
  <line x1="650" y1="210" x2="630" y2="250" stroke="#3498db" stroke-width="2" stroke-linecap="round"/><!-- 左腿 -->
  <line x1="630" y1="250" x2="625" y2="290" stroke="#3498db" stroke-width="2" stroke-linecap="round"/><!-- 左小腿 -->
  <line x1="650" y1="210" x2="670" y2="250" stroke="#3498db" stroke-width="2" stroke-linecap="round"/><!-- 右腿 -->
  <line x1="670" y1="250" x2="675" y2="290" stroke="#3498db" stroke-width="2" stroke-linecap="round"/><!-- 右小腿 -->
  
  <!-- 关节点 -->
  <circle cx="650" cy="140" r="4" fill="#3498db"/><!-- 头部 -->
  <circle cx="650" cy="170" r="4" fill="#3498db"/><!-- 肩部 -->
  <circle cx="650" cy="210" r="4" fill="#3498db"/><!-- 髋部 -->
  <circle cx="620" cy="190" r="4" fill="#3498db"/><!-- 左肩 -->
  <circle cx="610" cy="220" r="4" fill="#3498db"/><!-- 左手 -->
  <circle cx="680" cy="190" r="4" fill="#3498db"/><!-- 右肩 -->
  <circle cx="690" cy="220" r="4" fill="#3498db"/><!-- 右手 -->
  <circle cx="630" cy="250" r="4" fill="#3498db"/><!-- 左膝 -->
  <circle cx="625" cy="290" r="4" fill="#3498db"/><!-- 左脚 -->
  <circle cx="670" cy="250" r="4" fill="#3498db"/><!-- 右膝 -->
  <circle cx="675" cy="290" r="4" fill="#3498db"/><!-- 右脚 -->
  
  <!-- 分析结果 -->
  <rect x="570" y="320" width="160" height="60" rx="5" ry="5" fill="#fff" stroke="#3498db" stroke-width="1"/>
  <text x="650" y="340" font-family="Arial" font-size="12" fill="#333" text-anchor="middle" font-weight="bold">检测结果:</text>
  <text x="650" y="360" font-family="Arial" font-size="12" fill="#3498db" text-anchor="middle">正常行走模式</text>
  <text x="650" y="375" font-family="Arial" font-size="12" fill="#2c3e50" text-anchor="middle">置信度: 95%</text>
  
  <!-- 底部说明 -->
  <text x="400" y="450" font-family="Arial" font-size="14" fill="#666" text-anchor="middle">基于深度学习的骨架动作识别技术可用于健康状态评估和异常行为检测</text>
  
  <!-- 动画效果 -->
  <style>
    @keyframes pulse {
      0% { opacity: 0.7; }
      50% { opacity: 1; }
      100% { opacity: 0.7; }
    }
    circle {
      animation: pulse 2s infinite;
    }
  </style>
</svg>